# xmcd
#
# Track frame offsets:
#	150
#	10593
#	23441
#	35790
#	48294
#	61854
#	76764
#	89129
#	101014
#	116865
#	134439
#	142327
#	156409
#	166936
#	183041
#	198796
#	212846
#	223937
#
# Disc length: 3138 seconds
#
# Revision: 1
# Processed by: cddbd v1.5.2PL0 Copyright (c) Steve Scherf et al.
# Submitted via: audiograbber 1.83.01
#
DISCID=fd0c4012
DTITLE=Diverse Artister - Norske Countryduetter
DYEAR=2001
DGENRE=Country
TTITLE0=Lillian and Big Hand - The right combination
TTITLE1=Dottie West and Arne Benoni - As for you
TTITLE2=Lillian Askeland and Åsa - Ta fra han gitaren
TTITLE3=Lillian and Big Hand - Moderne Askepott
TTITLE4=Gro Anita Schønn and Guggen - Kjære John
TTITLE5=Lillian and Big Hand - Livet gir livet tar
TTITLE6=Rita Engebretsen and Helge Borglund - I Oleana
TTITLE7=Lillian and Big Hand - Alt kan bli som før
TTITLE8=Lillian and Teddy - Island of love
TTITLE9=Lillian and Big Hand - Our wedding band
TTITLE10=Rita Engebretsen and Bjøro Håland - Billy Boy
TTITLE11=Lillian and Big Hand - Våre ord på radio
TTITLE12=Gro Anita Schønn and Helge Borglund - Hei, min kjære
TTITLE13=Lillian and Big Hand - Bli hos meg til dagen gryr
TTITLE14=Lillian and Big Hand - Hvis jeg savner deg
TTITLE15=Lillian Askeland and Svenn-Erik Fjeldberg - Når det virkelig er over
TTITLE16=Lillian Askeland and Bjøro Håland - Sammen igjen
TTITLE17=Lillian and Big Hand - Final touch
EXTD=2001 Evigo Lisensiert fra TVA A/S
EXTT0=
EXTT1=
EXTT2=
EXTT3=
EXTT4=
EXTT5=
EXTT6=
EXTT7=
EXTT8=
EXTT9=
EXTT10=
EXTT11=
EXTT12=
EXTT13=
EXTT14=
EXTT15=
EXTT16=
EXTT17=
PLAYORDER=
